<?xml version="1.0" encoding="UTF-8"?>
<svg width="164px" height="44px" viewBox="0 0 164 44" version="1.1" xmlns="http://www.w3.org/2000/svg" xmlns:xlink="http://www.w3.org/1999/xlink">
    <!-- Generator: Sketch 50.2 (55047) - http://www.bohemiancoding.com/sketch -->
    <title>eduBrisk-logo-black</title>
    <desc>Created with Sketch.</desc>
    <defs></defs>
    <g id="Page-1" stroke="none" stroke-width="1" fill="none" fill-rule="evenodd">
        <g id="UI-Kit-Popups" transform="translate(-283.000000, -3303.000000)">
            <g id="eduBrisk-logo-black" transform="translate(283.000000, 3302.000000)">
                <g id="Group" transform="translate(0.000000, 1.000000)" fill-rule="nonzero">
                    <g id="Shape">
                        <path d="M21.8729325,27.6102937 C21.8729325,27.6102937 22.7277463,25.9131159 22.1971723,22.9192182 C21.332533,18.962315 17.6971181,16.0160908 13.3346201,16.0160908 C8.32364271,16.0160908 4.29520991,19.8967162 4.29520991,24.6926735 C4.29520991,29.4886308 8.32364271,34 13.3346201,34 C14.808437,34 15,34 17,34 L16.1053958,37.5 C15,37.5 14.3368156,37.5 13.4328746,37.5 C6.40768077,37.5 0.728573069,31.5481274 0.728573069,24.6545347 C0.728573069,17.7418726 6.39785533,12.145 13.4033982,12.145 C20.428592,12.145 26.0782234,17.5797826 26.1470015,24.6545347 C26.1764778,27.9916819 24.6731846,30.5 24.6731846,30.5 L13.5,30.5 C10.503239,30.5 8,28.182376 8,25.1694088 C8,22.1659764 10.5130645,20 13.5,20 C16.496761,20 18.5,22.1659764 18.5,25.1694088 C18.5,26.0275324 18.3438906,26.9047254 18,27.6102937 L21.8729325,27.6102937 Z" fill="#EB4528"></path>
                        <path d="M33.6871476,1.99452872 L30.8211285,0 L22.0414221,12.9087519 C28.7523471,17.3635369 30.4174639,26.475597 26.1285268,33.0565293 C21.6579407,39.8095784 12.5653942,41.8142316 5.5214458,36.4482406 L5.54162903,36.4988632 L3.32147339,39.8602009 C6.51042422,42.138216 9.94157386,43.5657721 14.280969,43.5657721 C24.412952,43.5657721 32.3651459,35.5674081 32.4458788,25.0784145 C32.4963369,19.7124235 30.2660896,15.1361444 27.0367723,11.7140596 L33.6972392,1.99452872 L33.6871476,1.99452872 Z" fill="#2D3068"></path>
                        <path d="M94.98,8.62 C97.83,8.62 98.78,8.69 100.12,9.82 C100.77,10.35 101.5,11.89 101.47,12.92 C101.41,14.72 100.97,15.25 100.39,16.02 C100.39,16.02 104.07,17.7 103.79,22.38 C103.69,24.1 103.19,25.88 102.09,26.94 C99.99,28.94 97.79,28.54 94.19,28.54 L89.75,28.54 L89.75,8.67 L94.98,8.61 L94.98,8.62 Z M91.55,15.37 L97.09,15.37 C97.75,15.35 99.52,15 99.57,13.11 C99.59,12.37 99.19,10.61 96.57,10.61 C95.24,10.61 91.53,10.64 91.51,10.61 L91.55,15.41 L91.55,15.37 Z M91.55,26.62 C91.55,26.62 97.9,26.64 97.95,26.65 C98.72,26.65 101.53,25.8 101.79,22.45 C101.96,20.28 100.75,17.3 97.33,17.42 L91.56,17.4 L91.56,26.62 L91.55,26.62 Z M106.51,13.47 L108.27,13.47 L108.25,15.57 C109.35,13.77 112.11,12.8 114.15,13.49 C114.68,13.65 115.41,14.05 115.45,14.05 L115.09,15.77 C115.07,15.77 114.24,15.4 113.76,15.24 C112.43,14.81 109.36,14.66 108.36,19.36 C108.26,19.83 108.26,28.64 108.26,28.64 L106.53,28.68 C106.53,28.68 106.63,14.8 106.53,13.42 L106.51,13.47 Z" fill="#2D3068"></path>
                        <path d="M120.62,10.02 C120.64,10.67 120.18,11.18 119.44,11.18 C118.78,11.18 118.32,10.68 118.32,10.02 C118.32,9.35 118.8,8.84 119.48,8.84 C120.18,8.84 120.62,9.34 120.62,10.02 Z M118.47,28.67 L118.43,13.47 L120.25,13.44 L120.35,28.64 L118.47,28.67 Z" fill="#2D3068"></path>
                        <path d="M124.78,25.76 C125.48,26.29 128.51,26.96 129.7,27.06 C133.27,27.34 134.6,25.76 134.6,24.53 C134.6,23.23 133.4,22.23 129.36,21.55 C126.84,21.12 124.38,19.87 124.51,17.51 C124.63,15.25 126.61,13.43 129.81,13.33 C130.83,13.3 134.18,13.68 135.63,14.63 L134.93,16.17 C134.03,15.79 132.06,15.07 129.83,15.13 C127.38,15.21 126.23,16.28 126.23,17.43 C126.23,18.68 127.43,19.37 130.33,19.93 C134.33,20.73 136.43,22.07 136.33,24.47 C136.23,26.7 134.93,28.89 129.83,28.7 C127.33,28.63 125.6,28 124,27.4 L124.76,25.8 L124.78,25.76 Z M140.54,23.33 L150.74,13.63 L153.04,13.63 L147.04,19.59 L152.84,28.86 L150.82,28.8 L145.72,20.97 L140.49,25.67 L140.52,28.82 L138.78,28.86 L138.88,8 L140.58,8 L140.54,23.33 Z" fill="#2D3068"></path>
                        <path d="M51.1,28.44 L37,28.44 L37,9.8 L50.42,9.8 L50.42,13.05 L40.45,13.05 L40.45,17.89 L48.95,17.89 L48.95,20.99 L40.45,20.99 L40.45,25.29 L51.1,25.29 L51.1,28.42 L51.1,28.44 Z M64.52,15.34 L64.52,9 L68.2,9 L68.2,28.86 L64.52,28.86 L64.52,27.99 C63.86,28.51 61.45,29.24 60,29.11 C53.94,28.61 53.24,23.47 53.26,21.49 C53.31,15.84 57.71,14.47 59.93,14.24 C61.77,14.04 63.91,14.79 64.53,15.32 L64.52,15.34 Z M64.5,18.71 C64.5,18.71 63.03,17.69 61.48,17.61 C60.28,17.59 59,17.87 58.08,18.69 C57.18,19.51 56.83,20.56 56.83,21.69 C56.83,22.89 57.31,23.82 58.19,24.66 C59.02,25.46 60.26,25.86 61.64,25.79 C63.12,25.69 64.54,24.55 64.54,24.55 L64.54,18.73 L64.5,18.71 Z M82.4603621,28.9 L82.4603621,27.82 C82.4603621,27.86 80.6303621,29.56 76.7603621,28.96 C72.0803621,28.24 72.5103621,22.49 72.5103621,20.9 L72.5103621,14.52 L76.2103621,14.52 C76.2103621,14.52 76.1103621,21.76 76.1103621,22.45 C76.1803621,24.55 77.0303621,25.27 77.8103621,25.52 C80.3303621,26.32 82.5303621,24.62 82.5103621,24.62 C82.4703621,24.6 82.4903621,20.77 82.4903621,19.3 L82.4903621,14.52 L85.9903621,14.52 L85.9903621,28.9 L82.4603621,28.9 Z" fill="#2D3068"></path>
                    </g>
                    <g id="Celebrating-Knowledge" transform="translate(36.000000, 32.000000)" fill="#2D3068">
                        <g id="Group">
                            <path d="M3.60142226,1.23497656 C2.79700966,1.23497656 2.16200052,1.49620442 1.69637581,2.01866797 C1.23075109,2.54113152 0.997942225,3.2564564 0.997942225,4.16466406 C0.997942225,5.09891353 1.22240669,5.82074875 1.67134235,6.3301914 C2.12027801,6.8396341 2.76029378,7.0943516 3.59140887,7.0943516 C4.10209405,7.0943516 4.68453343,7.0048342 5.3387445,6.8257969 L5.3387445,7.5533359 C4.83139714,7.7388837 4.20556686,7.8316563 3.46123487,7.8316563 C2.38312172,7.8316563 1.55118466,7.512649 0.965398726,6.874625 C0.379612789,6.236601 0.0867242092,5.33003452 0.0867242092,4.15489844 C0.0867242092,3.41921768 0.227744637,2.77469287 0.509789718,2.22130469 C0.791834799,1.6679165 1.1990417,1.24148848 1.73142266,0.94200781 C2.2638036,0.64252715 2.89046834,0.49278906 3.61143564,0.49278906 C4.3791323,0.49278906 5.05002237,0.62950645 5.62412597,0.90294531 L5.26364412,1.61583594 C4.70956739,1.36192842 4.15549898,1.23497656 3.60142226,1.23497656 Z M9.53895883,7.8316563 C8.72787065,7.8316563 8.08785488,7.5907732 7.61889235,7.109 C7.14992982,6.6272268 6.91545207,5.95828813 6.91545207,5.10216406 C6.91545207,4.23952954 7.13324101,3.55431504 7.56882542,3.0465 C8.00440984,2.53868496 8.58935255,2.28478125 9.3236711,2.28478125 C10.0112603,2.28478125 10.5553154,2.50531941 10.9558528,2.94640234 C11.3563902,3.38748528 11.5566559,3.96934795 11.5566559,4.69200781 L11.5566559,5.20470313 L7.77660316,5.20470313 C7.79329222,5.83296147 7.9560081,6.3098447 8.26475566,6.6353672 C8.57350324,6.9608896 9.00824668,7.1236484 9.56899901,7.1236484 C10.1597917,7.1236484 10.7438999,7.0032069 11.3213414,6.7623203 L11.3213414,7.4849766 C11.0276139,7.6086751 10.7497452,7.6973786 10.4877271,7.7510898 C10.2257089,7.804801 9.90945599,7.8316563 9.53895883,7.8316563 Z M9.31365774,2.96349219 C8.87306658,2.96349219 8.52176718,3.10346475 8.25974897,3.38341406 C7.99773077,3.66336338 7.84335929,4.0507293 7.79662993,4.54552344 L10.6654647,4.54552344 C10.6654647,4.03445317 10.548643,3.64301829 10.3149962,3.37120703 C10.0813494,3.09939578 9.74757325,2.96349219 9.31365774,2.96349219 Z M14.214809,7.734 L13.3836981,7.734 L13.3836981,0.13634375 L14.214809,0.13634375 L14.214809,7.734 Z M18.7054115,7.8316563 C17.8943233,7.8316563 17.2543076,7.5907732 16.785345,7.109 C16.3163824,6.6272268 16.0819047,5.95828813 16.0819047,5.10216406 C16.0819047,4.23952954 16.2996937,3.55431504 16.7352781,3.0465 C17.1708625,2.53868496 17.7558052,2.28478125 18.4901238,2.28478125 C19.1777129,2.28478125 19.7217681,2.50531941 20.1223055,2.94640234 C20.5228429,3.38748528 20.7231085,3.96934795 20.7231085,4.69200781 L20.7231085,5.20470313 L16.9430558,5.20470313 C16.9597449,5.83296147 17.1224607,6.3098447 17.4312083,6.6353672 C17.7399559,6.9608896 18.1746993,7.1236484 18.7354517,7.1236484 C19.3262443,7.1236484 19.9103526,7.0032069 20.487794,6.7623203 L20.487794,7.4849766 C20.1940666,7.6086751 19.916198,7.6973786 19.6541798,7.7510898 C19.3921615,7.804801 19.0759086,7.8316563 18.7054115,7.8316563 Z M18.4801104,2.96349219 C18.0395193,2.96349219 17.6882198,3.10346475 17.4262016,3.38341406 C17.1641835,3.66336338 17.009812,4.0507293 16.9630826,4.54552344 L19.8319173,4.54552344 C19.8319173,4.03445317 19.7150957,3.64301829 19.4814488,3.37120703 C19.247802,3.09939578 18.9140259,2.96349219 18.4801104,2.96349219 Z M25.1035638,2.29454688 C25.8245312,2.29454688 26.3844407,2.53461609 26.7833091,3.01476172 C27.1821777,3.49490735 27.3816089,4.17442529 27.3816089,5.05333594 C27.3816089,5.93224658 27.1805088,6.6150197 26.7783024,7.1016758 C26.3760962,7.5883319 25.8178555,7.8316563 25.1035638,7.8316563 C24.746418,7.8316563 24.4201518,7.7673665 24.1247555,7.6387852 C23.8293591,7.5102038 23.5815304,7.3124519 23.3812616,7.0455234 L23.3211814,7.0455234 L23.1459472,7.734 L22.5501508,7.734 L22.5501508,0.13634375 L23.3812616,0.13634375 L23.3812616,1.98204688 C23.3812616,2.3954604 23.3679106,2.76655044 23.3412081,3.09532813 L23.3812616,3.09532813 C23.7684478,2.56147129 24.3425428,2.29454688 25.1035638,2.29454688 Z M24.9834032,2.97325781 C24.4159753,2.97325781 24.0070994,3.13194763 23.7567636,3.44933203 C23.5064277,3.76671643 23.3812616,4.30137905 23.3812616,5.05333594 C23.3812616,5.80529282 23.5097655,6.3432106 23.766777,6.6671055 C24.0237885,6.9910003 24.436002,7.1529453 25.00343,7.1529453 C25.5141152,7.1529453 25.89462,6.9714693 26.1449558,6.6085117 C26.3952917,6.2455542 26.5204578,5.72391226 26.5204578,5.04357031 C26.5204578,4.34695225 26.3952917,3.82775171 26.1449558,3.48595313 C25.89462,3.14415454 25.5074397,2.97325781 24.9834032,2.97325781 Z M31.7470441,2.28478125 C31.9907043,2.28478125 32.2093277,2.3043123 32.4029209,2.343375 L32.2877669,3.09532813 C32.0607957,3.04649976 31.86053,3.02208594 31.6869638,3.02208594 C31.2430349,3.02208594 30.8633644,3.19786543 30.5479413,3.54942969 C30.2325181,3.90099395 30.0748088,4.33881509 30.0748088,4.86290625 L30.0748088,7.734 L29.243698,7.734 L29.243698,2.3824375 L29.9296148,2.3824375 L30.0247419,3.37364844 L30.0647954,3.37364844 C30.268402,3.0253394 30.5137274,2.7567874 30.8007793,2.56798438 C31.0878311,2.37918135 31.4032495,2.28478125 31.7470441,2.28478125 Z M37.0086772,7.734 L36.8434564,6.9722813 L36.8034028,6.9722813 C36.5297023,7.3075694 36.2568403,7.5346179 35.9848087,7.6534336 C35.712777,7.7722493 35.3731597,7.8316563 34.9659467,7.8316563 C34.4218835,7.8316563 33.9954844,7.6949389 33.6867368,7.4215 C33.3779893,7.1480611 33.2236178,6.7590676 33.2236178,6.2545078 C33.2236178,5.17377324 34.1097936,4.60737266 35.8821714,4.55528906 L36.8134162,4.52599219 L36.8134162,4.19396094 C36.8134162,3.77403696 36.7207933,3.46398147 36.5355449,3.26378516 C36.3502963,3.06358884 36.0540699,2.96349219 35.6468569,2.96349219 C35.1895768,2.96349219 34.6722237,3.10020957 34.0947823,3.37364844 L33.839441,2.75353125 C34.1098037,2.61030137 34.4060301,2.4979978 34.7281288,2.41661719 C35.0502277,2.33523657 35.3731562,2.29454688 35.6969239,2.29454688 C36.3511349,2.29454688 36.8359448,2.43614702 37.151368,2.71935156 C37.4667912,3.0025561 37.6245004,3.45665313 37.6245004,4.08165625 L37.6245004,7.734 L37.0086772,7.734 Z M35.1311676,7.1627109 C35.6485285,7.1627109 36.0549009,7.024366 36.3502972,6.7476719 C36.6456936,6.4709778 36.7933895,6.0836119 36.7933895,5.5855625 L36.7933895,5.10216406 L35.9622785,5.13634375 C35.3013919,5.15913032 34.8249264,5.25922698 34.5328679,5.43663672 C34.2408094,5.61404646 34.0947823,5.88992261 34.0947823,6.2642734 C34.0947823,6.5572437 34.1857363,6.7802232 34.367647,6.9332188 C34.5495578,7.0862143 34.804062,7.1627109 35.1311676,7.1627109 Z M41.5193066,7.1627109 C41.6661703,7.1627109 41.8080251,7.1521316 41.9448754,7.1309727 C42.0817257,7.1098137 42.190203,7.0878413 42.2703105,7.0650547 L42.2703105,7.6851719 C42.1801895,7.7274898 42.0475135,7.7624829 41.8722784,7.7901523 C41.6970433,7.8178218 41.539334,7.8316563 41.399146,7.8316563 C40.3377219,7.8316563 39.8070178,7.2864143 39.8070178,6.1959141 L39.8070178,3.01232031 L39.020967,3.01232031 L39.020967,2.62169531 L39.8070178,2.28478125 L40.1574862,1.14220313 L40.6381287,1.14220313 L40.6381287,2.3824375 L42.2302569,2.3824375 L42.2302569,3.01232031 L40.6381287,3.01232031 L40.6381287,6.1617344 C40.6381287,6.4840016 40.7165661,6.731395 40.8734433,6.9039219 C41.0303204,7.0764488 41.245606,7.1627109 41.5193066,7.1627109 Z M44.6080352,7.734 L43.7769243,7.734 L43.7769243,2.3824375 L44.6080352,2.3824375 L44.6080352,7.734 Z M43.7068306,0.93224219 C43.7068306,0.74669438 43.7535593,0.6107908 43.847018,0.52452734 C43.9404767,0.43826389 44.0572983,0.39513281 44.1974864,0.39513281 C44.3309989,0.39513281 44.4461517,0.43907769 44.5429482,0.52696875 C44.6397447,0.61485981 44.6881423,0.74994961 44.6881423,0.93224219 C44.6881423,1.11453477 44.6397447,1.25043835 44.5429482,1.33995703 C44.4461517,1.42947571 44.3309989,1.47423438 44.1974864,1.47423438 C44.0572983,1.47423438 43.9404767,1.42947571 43.847018,1.33995703 C43.7535593,1.25043835 43.7068306,1.11453477 43.7068306,0.93224219 Z M50.5355585,7.734 L50.5355585,4.27208594 C50.5355585,3.83588584 50.4337567,3.51036826 50.2301502,3.29552344 C50.0265437,3.08067861 49.7077875,2.97325781 49.273872,2.97325781 C48.6997684,2.97325781 48.2792104,3.12462349 48.0121855,3.42735938 C47.7451606,3.73009526 47.6116501,4.22976475 47.6116501,4.92638281 L47.6116501,7.734 L46.7805392,7.734 L46.7805392,2.3824375 L47.4564427,2.3824375 L47.5916233,3.11485938 L47.6316769,3.11485938 C47.8019053,2.85118618 48.0405552,2.6469239 48.3476339,2.50206641 C48.6547126,2.35720891 48.9968331,2.28478125 49.3740059,2.28478125 C50.0348925,2.28478125 50.532219,2.44021589 50.8660002,2.75108984 C51.1997813,3.06196379 51.3666693,3.55919189 51.3666693,4.24278906 L51.3666693,7.734 L50.5355585,7.734 Z M54.016778,7.312731 C54.0177894,7.3131818 54.018802,7.3136309 54.0198158,7.3140781 L54.016778,7.312731 Z M54.016778,7.312731 C53.8779272,7.2508382 53.7612837,7.1552596 53.666844,7.0259922 C53.5717164,6.8957832 53.5241533,6.7444175 53.5241533,6.5718906 C53.5241533,6.3765771 53.5775574,6.2056804 53.6843674,6.0591953 C53.7911774,5.91271021 53.9597344,5.77111006 54.1900434,5.63439063 C53.9063294,5.52045776 53.6751893,5.3267748 53.4966164,5.05333594 C53.3180435,4.77989707 53.2287585,4.4674002 53.2287585,4.11583594 C53.2287585,3.52989551 53.4089976,3.07823987 53.7694812,2.76085547 C54.1299649,2.44347107 54.6406424,2.28478125 55.301529,2.28478125 C55.5885809,2.28478125 55.8472574,2.31733301 56.0775664,2.3824375 L57.9751028,2.3824375 L57.9751028,2.89513281 L56.9587443,3.01232031 C57.052203,3.12625317 57.135647,3.27517747 57.2090788,3.45909766 C57.2825107,3.64301785 57.3192261,3.8505353 57.3192261,4.08165625 C57.3192261,4.60574741 57.1356492,5.0240375 56.7684899,5.33653906 C56.4013306,5.64904063 55.8973286,5.80528906 55.2564688,5.80528906 C55.092916,5.80528906 54.939379,5.79226836 54.7958532,5.76622656 C54.4420451,5.94851914 54.2651437,6.178009 54.2651437,6.4547031 C54.2651437,6.6011882 54.3268923,6.7094228 54.4503913,6.7794102 C54.5738904,6.8493975 54.7858383,6.8843906 55.0862413,6.8843906 L56.0575396,6.8843906 C56.6516701,6.8843906 57.108109,7.0064597 57.4268699,7.2506016 C57.745631,7.4947434 57.905009,7.8495576 57.905009,8.3150547 C57.905009,8.9075056 57.6613525,9.3591612 57.174032,9.6700352 C56.6867115,9.9809091 55.9757683,10.1363438 55.0411811,10.1363438 C54.3235516,10.1363438 53.7703176,10.0061367 53.3814625,9.7457188 C52.9926075,9.4853008 52.7981829,9.1174659 52.7981829,8.6422031 C52.7981829,8.3166807 52.9049912,8.035108 53.1186112,7.7974766 C53.3322298,7.5598466 53.6326261,7.3987159 54.0198088,7.3140796 L54.016778,7.312731 Z M53.5992537,8.6324375 C53.5992537,8.9221525 53.7244197,9.1418769 53.9747556,9.2916172 C54.2250915,9.4413575 54.5839008,9.5162266 55.0511944,9.5162266 C55.7487971,9.5162266 56.2653156,9.4145023 56.6007657,9.2110508 C56.9362158,9.0075992 57.1039383,8.7317231 57.1039383,8.3834141 C57.1039383,8.0936991 57.0121499,7.892692 56.8285702,7.7803867 C56.6449906,7.6680815 56.2995323,7.6119297 55.7921849,7.6119297 L54.7958532,7.6119297 C54.4186804,7.6119297 54.1249574,7.6998194 53.9146753,7.8756016 C53.7043931,8.0513837 53.5992537,8.3036598 53.5992537,8.6324375 Z M54.0498559,4.09630469 C54.0498559,4.47065552 54.1583332,4.75385581 54.3752909,4.94591406 C54.5922487,5.13797231 54.8943161,5.234 55.2815023,5.234 C56.0925905,5.234 56.4981285,4.84988926 56.4981285,4.08165625 C56.4981285,3.27761577 56.0875839,2.87560156 55.2664822,2.87560156 C54.8759583,2.87560156 54.5755597,2.9781396 54.3652776,3.18321875 C54.1549954,3.3882979 54.0498559,3.69265684 54.0498559,4.09630469 Z M68.9808809,7.734 L67.9795424,7.734 L65.3109753,4.27208594 L64.5449514,4.93614844 L64.5449514,7.734 L63.6938137,7.734 L63.6938137,0.59532813 L64.5449514,0.59532813 L64.5449514,4.13536719 L67.8643885,0.59532813 L68.8707336,0.59532813 L65.9267985,3.69591406 L68.9808809,7.734 Z M73.6475959,7.5855625 L73.6475959,4.12364844 C73.6475959,3.68744834 73.5457942,3.36193076 73.3421877,3.14708594 C73.1385812,2.93224111 72.8198249,2.82482031 72.3859094,2.82482031 C71.8118058,2.82482031 71.3912478,2.97618599 71.124223,3.27892188 C70.857198,3.58165776 70.7236876,4.08132725 70.7236876,4.77794531 L70.7236876,7.5855625 L69.8925766,7.5855625 L69.8925766,2.234 L70.5684801,2.234 L70.7036608,2.96642188 L70.7437143,2.96642188 C70.9139427,2.70274868 71.1525927,2.4984864 71.4596713,2.35362891 C71.76675,2.20877141 72.1088706,2.13634375 72.4860433,2.13634375 C73.14693,2.13634375 73.6442564,2.29177839 73.9780376,2.60265234 C74.3118188,2.91352629 74.4787069,3.41075439 74.4787069,4.09435156 L74.4787069,7.5855625 L73.6475959,7.5855625 Z M80.7289174,5.05333594 C80.7289174,5.92573613 80.5036186,6.6068817 80.053014,7.096793 C79.6024094,7.5867043 78.979917,7.8316563 78.1855178,7.8316563 C77.6948595,7.8316563 77.2592815,7.7193527 76.878771,7.4947422 C76.4982605,7.2701317 76.2045375,6.9478693 75.9975932,6.5279453 C75.7906489,6.1080213 75.6871783,5.61648979 75.6871783,5.05333594 C75.6871783,4.18093574 75.9108082,3.5014178 76.358075,3.01476172 C76.8053418,2.52810564 77.4261654,2.28478125 78.2205646,2.28478125 C78.9882612,2.28478125 79.5982372,2.5338022 80.0505107,3.03185156 C80.5027841,3.52990093 80.7289174,4.20372231 80.7289174,5.05333594 Z M76.5483293,5.05333594 C76.5483293,5.73693311 76.6885153,6.2577612 76.9688915,6.6158359 C77.2492677,6.9739106 77.6614812,7.1529453 78.2055445,7.1529453 C78.7496079,7.1529453 79.1626558,6.9747244 79.4447008,6.6182773 C79.7267459,6.2618302 79.8677664,5.74018833 79.8677664,5.05333594 C79.8677664,4.37299399 79.7267459,3.85623484 79.4447008,3.50304297 C79.1626558,3.1498511 78.7462701,2.97325781 78.1955311,2.97325781 C77.6514678,2.97325781 77.2409232,3.14740972 76.9638848,3.49571875 C76.6868464,3.84402778 76.5483293,4.36322832 76.5483293,5.05333594 Z M86.8717285,7.734 L85.8653834,4.59435156 C85.8019649,4.40229331 85.6834743,3.96609976 85.5099082,3.28575781 L85.4698547,3.28575781 C85.3363422,3.85542212 85.2195205,4.29487085 85.1193862,4.60411719 L84.0830008,7.734 L83.1217159,7.734 L81.6247149,2.3824375 L82.4958793,2.3824375 C82.8496873,3.72684526 83.1192116,4.75059805 83.3044602,5.45372656 C83.4897087,6.1568551 83.5956827,6.6304832 83.6223852,6.874625 L83.6624387,6.874625 C83.6991546,6.6890772 83.7583999,6.449008 83.8401763,6.1544102 C83.9219526,5.85981233 83.9928801,5.62625347 84.0529606,5.45372656 L85.0593058,2.3824375 L85.9605105,2.3824375 L86.9418221,5.45372656 C87.1287396,6.0136252 87.2555746,6.4839981 87.3223308,6.8648594 L87.3623843,6.8648594 C87.3757356,6.7476713 87.4116165,6.567009 87.4700283,6.3228672 C87.5284399,6.0787253 87.8764016,4.76526191 88.5139236,2.3824375 L89.3750746,2.3824375 L87.8580468,7.734 L86.8717285,7.734 Z M91.607659,7.734 L90.776548,7.734 L90.776548,0.13634375 L91.607659,0.13634375 L91.607659,7.734 Z M96.0982615,7.8316563 C95.2871733,7.8316563 94.6471574,7.5907732 94.178195,7.109 C93.7092324,6.6272268 93.4747546,5.95828813 93.4747546,5.10216406 C93.4747546,4.23952954 93.6925436,3.55431504 94.128128,3.0465 C94.5637125,2.53868496 95.1486551,2.28478125 95.8829737,2.28478125 C96.5705629,2.28478125 97.114618,2.50531941 97.5151554,2.94640234 C97.9156928,3.38748528 98.1159585,3.96934795 98.1159585,4.69200781 L98.1159585,5.20470313 L94.3359058,5.20470313 C94.3525948,5.83296147 94.5153107,6.3098447 94.8240583,6.6353672 C95.1328059,6.9608896 95.5675493,7.1236484 96.1283016,7.1236484 C96.7190943,7.1236484 97.3032026,7.0032069 97.8806439,6.7623203 L97.8806439,7.4849766 C97.5869165,7.6086751 97.3090479,7.6973786 97.0470296,7.7510898 C96.7850114,7.804801 96.4687585,7.8316563 96.0982615,7.8316563 Z M95.8729603,2.96349219 C95.4323692,2.96349219 95.0810698,3.10346475 94.8190516,3.38341406 C94.5570333,3.66336338 94.4026619,4.0507293 94.3559325,4.54552344 L97.2247673,4.54552344 C97.2247673,4.03445317 97.1079456,3.64301829 96.8742988,3.37120703 C96.640652,3.09939578 96.3068758,2.96349219 95.8729603,2.96349219 Z M103.677994,7.0162266 L103.632933,7.0162266 C103.249085,7.5598491 102.674989,7.8316563 101.910631,7.8316563 C101.193001,7.8316563 100.634761,7.5924008 100.235892,7.1138828 C99.8370236,6.6353648 99.6375924,5.95503306 99.6375924,5.07286719 C99.6375924,4.19070132 99.8378581,3.50548682 100.238396,3.01720313 C100.638933,2.52891943 101.196339,2.28478125 101.910631,2.28478125 C102.654963,2.28478125 103.22572,2.54845049 103.62292,3.07579688 L103.688006,3.07579688 L103.65296,2.69005469 L103.632933,2.31407813 L103.632933,0.13634375 L104.464044,0.13634375 L104.464044,7.734 L103.788141,7.734 L103.677994,7.0162266 Z M102.015771,7.1529453 C102.583199,7.1529453 102.994579,7.0023934 103.249921,6.7012852 C103.505264,6.4001769 103.632933,5.91434189 103.632933,5.24376563 L103.632933,5.07286719 C103.632933,4.31439985 103.503594,3.77322688 103.244914,3.44933203 C102.986233,3.12543718 102.573185,2.96349219 102.005758,2.96349219 C101.518438,2.96349219 101.145443,3.14822341 100.886762,3.51769141 C100.628082,3.8871594 100.498743,4.40880132 100.498743,5.08263281 C100.498743,5.76622998 100.627247,6.2821753 100.884259,6.6304844 C101.14127,6.9787934 101.518437,7.1529453 102.015771,7.1529453 Z M107.169227,7.312731 C107.170238,7.3131818 107.17125,7.3136309 107.172264,7.3140781 L107.169227,7.312731 Z M107.169227,7.312731 C107.030375,7.2508382 106.913732,7.1552596 106.819292,7.0259922 C106.724164,6.8957832 106.676602,6.7444175 106.676602,6.5718906 C106.676602,6.3765771 106.730006,6.2056804 106.836816,6.0591953 C106.943626,5.91271021 107.112182,5.77111006 107.342492,5.63439063 C107.058778,5.52045776 106.827638,5.3267748 106.649064,5.05333594 C106.470492,4.77989707 106.381207,4.4674002 106.381207,4.11583594 C106.381207,3.52989551 106.561445,3.07823987 106.92193,2.76085547 C107.282413,2.44347107 107.793091,2.28478125 108.453977,2.28478125 C108.741028,2.28478125 108.999706,2.31733301 109.230014,2.3824375 L111.127551,2.3824375 L111.127551,2.89513281 L110.111192,3.01232031 C110.204651,3.12625317 110.288095,3.27517747 110.361527,3.45909766 C110.434959,3.64301785 110.471675,3.8505353 110.471675,4.08165625 C110.471675,4.60574741 110.288097,5.0240375 109.920938,5.33653906 C109.553779,5.64904063 109.049777,5.80528906 108.408917,5.80528906 C108.245364,5.80528906 108.091827,5.79226836 107.948301,5.76622656 C107.594493,5.94851914 107.417592,6.178009 107.417592,6.4547031 C107.417592,6.6011882 107.479341,6.7094228 107.602839,6.7794102 C107.726338,6.8493975 107.938286,6.8843906 108.238689,6.8843906 L109.209988,6.8843906 C109.804118,6.8843906 110.260557,7.0064597 110.579318,7.2506016 C110.898079,7.4947434 111.057458,7.8495576 111.057458,8.3150547 C111.057458,8.9075056 110.813801,9.3591612 110.32648,9.6700352 C109.839159,9.9809091 109.128217,10.1363438 108.193629,10.1363438 C107.476,10.1363438 106.922765,10.0061367 106.533911,9.7457188 C106.145056,9.4853008 105.950631,9.1174659 105.950631,8.6422031 C105.950631,8.3166807 106.05744,8.035108 106.271059,7.7974766 C106.484678,7.5598466 106.785075,7.3987159 107.172257,7.3140796 L107.169227,7.312731 Z M106.751702,8.6324375 C106.751702,8.9221525 106.876868,9.1418769 107.127204,9.2916172 C107.37754,9.4413575 107.736349,9.5162266 108.203643,9.5162266 C108.901245,9.5162266 109.417764,9.4145023 109.753214,9.2110508 C110.088664,9.0075992 110.256387,8.7317231 110.256387,8.3834141 C110.256387,8.0936991 110.164598,7.892692 109.981018,7.7803867 C109.797439,7.6680815 109.45198,7.6119297 108.944633,7.6119297 L107.948301,7.6119297 C107.571129,7.6119297 107.277405,7.6998194 107.067123,7.8756016 C106.856841,8.0513837 106.751702,8.3036598 106.751702,8.6324375 Z M107.202304,4.09630469 C107.202304,4.47065552 107.310781,4.75385581 107.527739,4.94591406 C107.744696,5.13797231 108.046764,5.234 108.43395,5.234 C109.245039,5.234 109.650576,4.84988926 109.650576,4.08165625 C109.650576,3.27761577 109.240032,2.87560156 108.41893,2.87560156 C108.028406,2.87560156 107.728007,2.9781396 107.517725,3.18321875 C107.307443,3.3882979 107.202304,3.69265684 107.202304,4.09630469 Z M114.982303,7.8316563 C114.171215,7.8316563 113.5312,7.5907732 113.062236,7.109 C112.593274,6.6272268 112.358796,5.95828813 112.358796,5.10216406 C112.358796,4.23952954 112.576586,3.55431504 113.01217,3.0465 C113.447754,2.53868496 114.032697,2.28478125 114.767016,2.28478125 C115.454605,2.28478125 115.99866,2.50531941 116.399197,2.94640234 C116.799735,3.38748528 117,3.96934795 117,4.69200781 L117,5.20470313 L113.219948,5.20470313 C113.236637,5.83296147 113.399353,6.3098447 113.7081,6.6353672 C114.016848,6.9608896 114.451591,7.1236484 115.012344,7.1236484 C115.603137,7.1236484 116.187244,7.0032069 116.764686,6.7623203 L116.764686,7.4849766 C116.470959,7.6086751 116.19309,7.6973786 115.931072,7.7510898 C115.669054,7.804801 115.352801,7.8316563 114.982303,7.8316563 Z M114.757002,2.96349219 C114.316411,2.96349219 113.965112,3.10346475 113.703093,3.38341406 C113.441075,3.66336338 113.286703,4.0507293 113.239974,4.54552344 L116.108809,4.54552344 C116.108809,4.03445317 115.991988,3.64301829 115.758341,3.37120703 C115.524694,3.09939578 115.190918,2.96349219 114.757002,2.96349219 Z" id="path-1"></path>
                        </g>
                    </g>
                </g>
                <g id="Group" transform="translate(151.000000, 0.000000)">
                    <g id="Group-16">
                        <g id="TM">
                            <g id="path-2-link"></g>
                            <g id="path-2-link" transform="translate(2.000000, 3.000000)" fill="#444444" fill-rule="nonzero">
                                <path d="M1.9291939,6 L1.9291939,0.708049113 L0,0.708049113 L0,0 L4.64124909,0 L4.64124909,0.708049113 L2.70406681,0.708049113 L2.70406681,6 L1.9291939,6 Z M5.41212781,6 L5.41212781,0 L6.57843137,0 L7.9644154,4.24829468 C8.09223012,4.64393104 8.18542696,4.93997173 8.24400871,5.13642565 C8.31057889,4.91814352 8.41442679,4.59754645 8.55555556,4.17462483 L9.95751634,0 L11,0 L11,6 L10.2530864,6 L10.2530864,0.978171896 L8.55156137,6 L7.85257807,6 L6.15904139,0.892223738 L6.15904139,6 L5.41212781,6 Z" id="path-2"></path>
                            </g>
                        </g>
                    </g>
                </g>
            </g>
        </g>
    </g>
</svg>